<svg width="32" height="32" viewBox="0 0 32 32" fill="none" xmlns="http://www.w3.org/2000/svg">
<path d="M17.8901 17C18.1844 17 18.4668 16.8946 18.6749 16.7071C18.8831 16.5196 19 16.2652 19 16C19 15.7348 18.8831 15.4804 18.6749 15.2929C18.4668 15.1054 18.1844 15 17.8901 15H9.10995C8.81557 15 8.53325 15.1054 8.3251 15.2929C8.11694 15.4804 8 15.7348 8 16C8 16.2652 8.11694 16.5196 8.3251 16.7071C8.53325 16.8946 8.81557 17 9.10995 17H17.8901Z" fill="white"/>
<path d="M24 9.99997C23.9985 9.73514 23.877 9.48152 23.6617 9.29426C23.4465 9.10699 23.155 9.00123 22.8506 8.99997H9.14943C8.84458 8.99997 8.55222 9.10533 8.33666 9.29286C8.1211 9.4804 8 9.73475 8 9.99997C8 10.2652 8.1211 10.5195 8.33666 10.7071C8.55222 10.8946 8.84458 11 9.14943 11H22.8506C23.1544 10.9971 23.4448 10.8908 23.6596 10.7039C23.8745 10.5169 23.9967 10.2643 24 9.99997Z" fill="white"/>
<path d="M9.10988 23H14.8901C15.1845 23 15.4668 22.8946 15.6749 22.7071C15.8831 22.5195 16 22.2652 16 22C16 21.7348 15.8831 21.4804 15.6749 21.2929C15.4668 21.1053 15.1845 21 14.8901 21H9.10988C8.81552 21 8.53322 21.1053 8.32508 21.2929C8.11693 21.4804 8 21.7348 8 22C8 22.2652 8.11693 22.5195 8.32508 22.7071C8.53322 22.8946 8.81552 23 9.10988 23Z" fill="white"/>
</svg>
